<?xml version="1.0" encoding="utf-8"?>
<!-- Generator: Adobe Adobe Illustrator 24.2.0, SVG Export Plug-In . SVG Version: 6.00 Build 0)  -->
<svg version="1.1" xmlns="http://www.w3.org/2000/svg" xmlns:xlink="http://www.w3.org/1999/xlink" x="0px" y="0px"
	 viewBox="0 0 141.73 141.73" style="enable-background:new 0 0 141.73 141.73;" xml:space="preserve">
<style type="text/css">
	.st0{display:none;}
	.st1{display:inline;}
	.st2{opacity:0.6;fill:#1B86AA;stroke:#1B86AA;stroke-width:8;stroke-miterlimit:10;}
	.st3{display:inline;opacity:0.6;fill:#1B86AA;stroke:#1B86AA;stroke-width:8;stroke-miterlimit:10;}
	.st4{display:inline;opacity:0.6;}
	.st5{fill:#1B86AA;}
	.st6{display:none;opacity:0.6;fill:#1B86AA;stroke:#1B86AA;stroke-width:8;stroke-miterlimit:10;}
	.st7{opacity:0.6;fill:#1B86AA;}
</style>
<g id="Ebene_1" class="st0">
	<g id="Ebene_3" class="st1">
	</g>
	<path class="st2" d="M12.6,137.49c-4.82,0-8.73-3.91-8.73-8.73"/>
	<path class="st3" d="M129.13,166.99H12.6"/>
	<path class="st2" d="M137.87,128.76c0,4.82-3.91,8.73-8.73,8.73"/>
	<path class="st2" d="M12.6,4.24h116.53"/>
	<path class="st2" d="M3.87,12.98c0-4.82,3.91-8.73,8.73-8.73"/>
	<path class="st2" d="M137.87,12.98v115.78"/>
	<path class="st2" d="M3.87,128.76V12.98"/>
	<g class="st4">
		<g>
			<g>
				<path class="st5" d="M64.47,99.24l58.28-62.21c3.13-3.34,2.98-8.61-0.35-11.76l-9.9-9.38c-3.32-3.15-8.56-2.99-11.69,0.35
					L42.52,78.46c-3.13,3.34-2.98,8.61,0.35,11.75l9.9,9.38C56.1,102.74,61.33,102.59,64.47,99.24z"/>
				<path class="st5" d="M25.78,95.82l-9.57,24.28c-1.44,3.65,2.32,7.18,5.87,5.51l23.53-11.06c2.76-1.3,3.35-4.97,1.14-7.06
					L32.78,94.26C30.56,92.15,26.9,92.96,25.78,95.82z"/>
			</g>
		</g>
	</g>
</g>
<g id="Ebene_2">
	<path class="st6" d="M129.13,4.24c4.82,0,8.73,3.91,8.73,8.73"/>
	<g class="st0">
	</g>
	<path class="st7" d="M20.87,141.73c0-33.55,22.39-60.75,50-60.75s50,27.2,50,60.75"/>
</g>
<g id="Ebene_5">
	<ellipse class="st7" cx="72.87" cy="47.98" rx="35" ry="33"/>
</g>
<g id="Ebene_4">
</g>
</svg>
